<?xml version="1.0" encoding="utf-8"?><!-- Uploaded to: SVG Repo, www.svgrepo.com, Generator: SVG Repo Mixer Tools -->
<svg fill="#000000" width="800px" height="800px" viewBox="0 0 24 24" id="molecule-5" data-name="Flat Line" xmlns="http://www.w3.org/2000/svg" class="icon flat-line"><circle id="secondary" cx="13" cy="13" r="3" style="fill: rgb(44, 169, 188); stroke-width: 2;"></circle><path id="primary" d="M10.85,10.85,6.41,6.41m8.9,8.9L17,17m-2.25-6.75L17,6.73m-6.72,8L6.73,17M13,10a3,3,0,1,1-3,3A3,3,0,0,1,13,10ZM5,3A2,2,0,1,1,3,5,2,2,0,0,1,5,3ZM19,21a2,2,0,1,1,2-2A2,2,0,0,1,19,21ZM18,7a2,2,0,1,1,2-2A2,2,0,0,1,18,7ZM5,20a2,2,0,1,1,2-2A2,2,0,0,1,5,20Z" style="fill: none; stroke: rgb(0, 0, 0); stroke-linecap: round; stroke-linejoin: round; stroke-width: 2;"></path></svg>